<svg width="94" height="23" viewBox="0 0 94 23" fill="none" xmlns="http://www.w3.org/2000/svg">
<path d="M8.50568 0.00102043H12.1534V12.1715C12.1534 13.2965 11.9006 14.2737 11.3949 15.1033C10.8949 15.9328 10.1989 16.572 9.30682 17.0209C8.41477 17.4698 7.37784 17.6942 6.19602 17.6942C5.14489 17.6942 4.19034 17.5095 3.33239 17.1402C2.48011 16.7652 1.80398 16.197 1.30398 15.4357C0.803977 14.6686 0.556818 13.7056 0.5625 12.5465H4.2358C4.24716 13.0067 4.34091 13.4016 4.51705 13.7311C4.69886 14.055 4.94602 14.305 5.25852 14.4811C5.5767 14.6516 5.9517 14.7368 6.38352 14.7368C6.83807 14.7368 7.22159 14.6402 7.53409 14.447C7.85227 14.2482 8.09375 13.9584 8.25852 13.5777C8.4233 13.197 8.50568 12.7283 8.50568 12.1715V0.00102043ZM20.3311 17.7112C19.0073 17.7112 17.8624 17.43 16.8965 16.8675C15.9362 16.2993 15.1948 15.5095 14.672 14.4982C14.1493 13.4811 13.888 12.3022 13.888 10.9612C13.888 9.60898 14.1493 8.42716 14.672 7.41579C15.1948 6.39875 15.9362 5.60897 16.8965 5.04647C17.8624 4.47829 19.0073 4.1942 20.3311 4.1942C21.655 4.1942 22.797 4.47829 23.7573 5.04647C24.7232 5.60897 25.4675 6.39875 25.9902 7.41579C26.513 8.42716 26.7743 9.60898 26.7743 10.9612C26.7743 12.3022 26.513 13.4811 25.9902 14.4982C25.4675 15.5095 24.7232 16.2993 23.7573 16.8675C22.797 17.43 21.655 17.7112 20.3311 17.7112ZM20.3482 14.8987C20.9505 14.8987 21.4533 14.7283 21.8567 14.3874C22.2601 14.0408 22.5641 13.5692 22.7686 12.9726C22.9789 12.376 23.084 11.697 23.084 10.9357C23.084 10.1743 22.9789 9.49534 22.7686 8.89875C22.5641 8.30216 22.2601 7.83057 21.8567 7.48398C21.4533 7.13738 20.9505 6.96409 20.3482 6.96409C19.7402 6.96409 19.2289 7.13738 18.8141 7.48398C18.405 7.83057 18.0953 8.30216 17.8851 8.89875C17.6806 9.49534 17.5783 10.1743 17.5783 10.9357C17.5783 11.697 17.6806 12.376 17.8851 12.9726C18.0953 13.5692 18.405 14.0408 18.8141 14.3874C19.2289 14.7283 19.7402 14.8987 20.3482 14.8987ZM28.4833 17.4556V0.00102043H32.114V6.56352H32.2248C32.3839 6.21125 32.614 5.85329 32.9151 5.48966C33.2219 5.12034 33.6197 4.81352 34.1083 4.5692C34.6026 4.3192 35.2162 4.1942 35.9492 4.1942C36.9037 4.1942 37.7844 4.4442 38.5912 4.9442C39.3981 5.43852 40.043 6.18568 40.5259 7.18568C41.0089 8.18 41.2503 9.42716 41.2503 10.9272C41.2503 12.3874 41.0145 13.6203 40.543 14.626C40.077 15.626 39.4407 16.3845 38.6339 16.9016C37.8327 17.413 36.935 17.6686 35.9407 17.6686C35.2361 17.6686 34.6367 17.5522 34.1424 17.3192C33.6537 17.0862 33.2532 16.7936 32.9407 16.4414C32.6282 16.0834 32.3895 15.7226 32.2248 15.359H32.0628V17.4556H28.4833ZM32.0373 10.9101C32.0373 11.6885 32.1452 12.3675 32.3611 12.947C32.577 13.5266 32.8895 13.9783 33.2986 14.3022C33.7077 14.6203 34.2049 14.7794 34.7901 14.7794C35.381 14.7794 35.881 14.6175 36.2901 14.2936C36.6992 13.9641 37.0089 13.5095 37.2191 12.93C37.435 12.3448 37.543 11.6715 37.543 10.9101C37.543 10.1544 37.4378 9.48966 37.2276 8.91579C37.0174 8.34193 36.7077 7.89307 36.2986 7.5692C35.8895 7.24534 35.3867 7.08341 34.7901 7.08341C34.1992 7.08341 33.6992 7.23966 33.2901 7.55216C32.8867 7.86466 32.577 8.30784 32.3611 8.8817C32.1452 9.45557 32.0373 10.1317 32.0373 10.9101ZM46.5836 0.00102043V17.4556H42.9529V0.00102043H46.5836ZM51.0135 22.3647C50.5532 22.3647 50.1214 22.3277 49.718 22.2539C49.3203 22.1857 48.9907 22.0976 48.7294 21.9897L49.5476 19.2794C49.9737 19.4101 50.3572 19.4811 50.6981 19.4925C51.0447 19.5039 51.343 19.4243 51.593 19.2539C51.8487 19.0834 52.0561 18.7936 52.2152 18.3845L52.4282 17.8306L47.7322 4.36466H51.5504L54.2606 13.9783H54.397L57.1328 4.36466H60.9765L55.8885 18.8703C55.6441 19.5749 55.3118 20.1885 54.8913 20.7112C54.4765 21.2397 53.951 21.6459 53.3146 21.93C52.6782 22.2198 51.9112 22.3647 51.0135 22.3647ZM63.4163 17.6772C62.8538 17.6772 62.3709 17.4783 61.9675 17.0806C61.5697 16.6772 61.3709 16.1942 61.3709 15.6317C61.3709 15.0749 61.5697 14.5976 61.9675 14.1999C62.3709 13.8022 62.8538 13.6033 63.4163 13.6033C63.9618 13.6033 64.4391 13.8022 64.8482 14.1999C65.2572 14.5976 65.4618 15.0749 65.4618 15.6317C65.4618 16.0067 65.3652 16.3505 65.172 16.663C64.9845 16.9698 64.7374 17.2169 64.4305 17.4044C64.1237 17.5862 63.7857 17.6772 63.4163 17.6772ZM73.6374 17.7112C72.2965 17.7112 71.1431 17.4272 70.1772 16.859C69.2169 16.2851 68.4783 15.4897 67.9613 14.4726C67.4499 13.4556 67.1942 12.2851 67.1942 10.9612C67.1942 9.62034 67.4527 8.4442 67.9698 7.43284C68.4925 6.41579 69.234 5.62318 70.1942 5.055C71.1544 4.48113 72.2965 4.1942 73.6203 4.1942C74.7624 4.1942 75.7624 4.40159 76.6203 4.81636C77.4783 5.23113 78.1573 5.81352 78.6573 6.56352C79.1573 7.31352 79.4328 8.1942 79.484 9.20557H76.0578C75.9613 8.55216 75.7056 8.02659 75.2908 7.62886C74.8817 7.22545 74.3448 7.02375 73.68 7.02375C73.1175 7.02375 72.626 7.17716 72.2056 7.48398C71.7908 7.78511 71.4669 8.22545 71.234 8.805C71.001 9.38454 70.8845 10.0862 70.8845 10.9101C70.8845 11.7453 70.9982 12.4556 71.2255 13.0408C71.4584 13.626 71.7851 14.072 72.2056 14.3789C72.626 14.6857 73.1175 14.8391 73.68 14.8391C74.0948 14.8391 74.4669 14.7539 74.7965 14.5834C75.1317 14.413 75.4073 14.1658 75.6232 13.8419C75.8448 13.5124 75.9897 13.1175 76.0578 12.6573H79.484C79.4272 13.6573 79.1544 14.538 78.6658 15.2993C78.1828 16.055 77.5152 16.6459 76.663 17.072C75.8107 17.4982 74.8022 17.7112 73.6374 17.7112ZM87.0033 17.7112C85.6795 17.7112 84.5346 17.43 83.5687 16.8675C82.6084 16.2993 81.867 15.5095 81.3442 14.4982C80.8215 13.4811 80.5601 12.3022 80.5601 10.9612C80.5601 9.60898 80.8215 8.42716 81.3442 7.41579C81.867 6.39875 82.6084 5.60897 83.5687 5.04647C84.5346 4.47829 85.6795 4.1942 87.0033 4.1942C88.3272 4.1942 89.4692 4.47829 90.4295 5.04647C91.3954 5.60897 92.1397 6.39875 92.6624 7.41579C93.1851 8.42716 93.4465 9.60898 93.4465 10.9612C93.4465 12.3022 93.1851 13.4811 92.6624 14.4982C92.1397 15.5095 91.3954 16.2993 90.4295 16.8675C89.4692 17.43 88.3272 17.7112 87.0033 17.7112ZM87.0204 14.8987C87.6226 14.8987 88.1255 14.7283 88.5289 14.3874C88.9323 14.0408 89.2363 13.5692 89.4408 12.9726C89.6511 12.376 89.7562 11.697 89.7562 10.9357C89.7562 10.1743 89.6511 9.49534 89.4408 8.89875C89.2363 8.30216 88.9323 7.83057 88.5289 7.48398C88.1255 7.13738 87.6226 6.96409 87.0204 6.96409C86.4124 6.96409 85.9011 7.13738 85.4863 7.48398C85.0772 7.83057 84.7675 8.30216 84.5573 8.89875C84.3528 9.49534 84.2505 10.1743 84.2505 10.9357C84.2505 11.697 84.3528 12.376 84.5573 12.9726C84.7675 13.5692 85.0772 14.0408 85.4863 14.3874C85.9011 14.7283 86.4124 14.8987 87.0204 14.8987Z" fill="#080305"/>
</svg>
